# xmcd
#
# Track frame offsets:
#	300
#	28278
#	44428
#	63512
#	83637
#	106066
#	123554
#	141521
#	160447
#	186132
#	204205
#	221117
#	247389
#	260735
#	278081
#	297453
#	322145
#
# Disc length: 4588 seconds
#
# Revision: 0
# Processed by: cddbd v1.5.2PL0 Copyright (c) Steve Scherf et al.
# Submitted via: EasyCDDAExtractor 15.0.0.1
#
DISCID=1c11e811
DTITLE=Various Artist - 2011 Steppers Go 2 Work X
DYEAR=2011
DGENRE=R&B
TTITLE0=DJ Calvin - Brotha's Gonna Work It Out
TTITLE1=Mary J. Blige feat. P. Diddy Lil' Wayne - Someone To Love Me
TTITLE2=Dexter Wansel - A Kool Summer
TTITLE3=Carmell - True Love
TTITLE4=Res - When You Are
TTITLE5=Kindred The Family Soul feat. Snoop Dogg - You Got Love
TTITLE6=Cramquik - Chilaxin' By The Sea
TTITLE7=Gelka - Soon
TTITLE8=Satia - Boozoo Bajou
TTITLE9=Anthony David feat. India Arie - Words
TTITLE10=Anthony David  - Let Me In
TTITLE11=Mos Def - Healthy In The Dark
TTITLE12=Zhane - Crush
TTITLE13=Marzette Griffith - Make Love
TTITLE14=Toshi Mos Def - Living For Today
TTITLE15=Lushlife Project - Futura Lake
TTITLE16=Moodorama - Weird Love
EXTD=
EXTT0=
EXTT1=
EXTT2=
EXTT3=
EXTT4=
EXTT5=
EXTT6=
EXTT7=
EXTT8=
EXTT9=
EXTT10=
EXTT11=
EXTT12=
EXTT13=
EXTT14=
EXTT15=
EXTT16=
PLAYORDER=
